<svg xmlns="http://www.w3.org/2000/svg" viewBox="0 0 200 200" width="200" height="200" role="img" aria-label="Bug celebrating - checklist up big smile sparkles">
  <title>Bug - celebrating</title>
  <!-- Same base shapes/colors, checklist raised + open smile + sparkles. No gradients. -->
  <g id="outline" stroke-linecap="round" stroke-linejoin="round">
    <path d="M88 44 L80 26" fill="none" stroke="#303030" stroke-width="5"/>
    <path d="M112 44 L120 26" fill="none" stroke="#303030" stroke-width="5"/>
    <circle cx="79" cy="24" r="5.5" fill="#DC6F51" stroke="#303030" stroke-width="3.5"/>
    <circle cx="121" cy="24" r="5.5" fill="#DC6F51" stroke="#303030" stroke-width="3.5"/>
    <polygon points="36,42 38.5,48 45,50.5 38.5,53 36,59 33.5,53 27,50.5 33.5,48" fill="#85CEC7" stroke="#303030" stroke-width="2"/>
    <polygon points="164,42 166.5,48 173,50.5 166.5,53 164,59 161.5,53 155,50.5 161.5,48" fill="#85CEC7" stroke="#303030" stroke-width="2"/>
    <polygon points="170,96 171.5,100 176,101.5 171.5,103 170,107 168.5,103 164,101.5 168.5,100" fill="#DC6F51" stroke="#303030" stroke-width="2"/>
  </g>
  <g id="body" stroke-linecap="round" stroke-linejoin="round">
    <ellipse cx="82" cy="168" rx="11" ry="6.5" fill="#303030" stroke="#303030" stroke-width="4"/>
    <ellipse cx="118" cy="168" rx="11" ry="6.5" fill="#303030" stroke="#303030" stroke-width="4"/>
    <ellipse cx="100" cy="122" rx="40" ry="38" fill="#DC6F51" stroke="#303030" stroke-width="5"/>
    <path d="M100 88 L100 156" stroke="#303030" stroke-width="2.5"/>
    <circle cx="82" cy="112" r="7" fill="#303030"/>
    <circle cx="118" cy="112" r="7" fill="#303030"/>
    <circle cx="84" cy="140" r="5.5" fill="#303030"/>
    <circle cx="116" cy="140" r="5.5" fill="#303030"/>
    <path d="M64 112 L76 104" stroke="#303030" stroke-width="10" stroke-linecap="round"/>
    <path d="M136 112 L124 104" stroke="#303030" stroke-width="10" stroke-linecap="round"/>
    <rect x="76" y="100" width="48" height="42" rx="7" fill="#85CEC7" stroke="#303030" stroke-width="4"/>
    <rect x="93" y="96" width="14" height="8" rx="3" fill="#6E6D6C" stroke="#303030" stroke-width="2.5"/>
    <rect x="82" y="109" width="7" height="7" rx="2" fill="none" stroke="#303030" stroke-width="2"/>
    <path d="M83 112.5 L85.5 115 L89.5 110.5" fill="none" stroke="#303030" stroke-width="1.8"/>
    <path d="M93 113 H116" stroke="#303030" stroke-width="1.8"/>
    <rect x="82" y="119" width="7" height="7" rx="2" fill="none" stroke="#303030" stroke-width="2"/>
    <path d="M83 122.5 L85.5 125 L89.5 120.5" fill="none" stroke="#303030" stroke-width="1.8"/>
    <path d="M93 123 H116" stroke="#303030" stroke-width="1.8"/>
    <rect x="82" y="129" width="7" height="7" rx="2" fill="none" stroke="#303030" stroke-width="2"/>
    <path d="M83 132.5 L85.5 135 L89.5 130.5" fill="none" stroke="#303030" stroke-width="1.8"/>
    <path d="M93 133 H116" stroke="#303030" stroke-width="1.8"/>
    <circle cx="74" cy="106" r="7" fill="#303030" stroke="#303030" stroke-width="3"/>
    <circle cx="126" cy="106" r="7" fill="#303030" stroke="#303030" stroke-width="3"/>
    <circle cx="100" cy="62" r="24" fill="#303030" stroke="#303030" stroke-width="5"/>
    <path d="M89 86 Q100 100 111 86 Q100 91 89 86 Z" fill="#DC6F51" stroke="#DC6F51" stroke-width="2.5"/>
    <ellipse cx="76" cy="78" rx="5" ry="3.2" fill="#DC6F51" stroke="#303030" stroke-width="1.5"/>
    <ellipse cx="124" cy="78" rx="5" ry="3.2" fill="#DC6F51" stroke="#303030" stroke-width="1.5"/>
  </g>
  <g id="eyes" stroke-linecap="round" stroke-linejoin="round">
    <circle cx="88" cy="62" r="14" fill="#85CEC7" stroke="#3A8A83" stroke-width="4"/>
    <circle cx="112" cy="62" r="14" fill="#85CEC7" stroke="#3A8A83" stroke-width="4"/>
    <path d="M102 62 H98" stroke="#3A8A83" stroke-width="4"/>
    <circle cx="90" cy="64" r="6" fill="#303030"/>
    <circle cx="110" cy="64" r="6" fill="#303030"/>
    <circle cx="92" cy="62" r="2" fill="#85CEC7"/>
    <circle cx="112" cy="62" r="2" fill="#85CEC7"/>
    <path d="M78 46 Q88 42 97 46" fill="none" stroke="#303030" stroke-width="2.5"/>
    <path d="M103 46 Q112 42 122 46" fill="none" stroke="#303030" stroke-width="2.5"/>
  </g>
  <text x="100" y="194" text-anchor="middle" font-family="Verdana, Arial, sans-serif" font-size="15" font-weight="bold" letter-spacing="3" fill="#303030">BUG</text>
</svg>
